<?xml version="1.0" encoding="utf-8"?>
<svg version="1.1" id="Layer_1" xmlns="http://www.w3.org/2000/svg" xmlns:xlink="http://www.w3.org/1999/xlink" x="0px" y="0px"
	 viewBox="0 0 494.25 325.25" style="enable-background:new 0 0 494.25 325.25;" xml:space="preserve">
<style type="text/css">
	.st0{fill:#3C3C3B;}
	.st1{fill:#FFFFFF;}
</style>
<g>
	<path class="st0" d="M311.43,158.25H182.82c-8.19,0-14.82-6.64-14.82-14.82V14.82C168,6.64,174.64,0,182.82,0h128.61
		c8.19,0,14.82,6.64,14.82,14.82v128.61C326.25,151.62,319.62,158.25,311.43,158.25z"/>
</g>
<g>
	<path class="st0" d="M479.43,325.25H350.82c-8.19,0-14.82-6.64-14.82-14.82V181.82c0-8.19,6.64-14.82,14.82-14.82h128.61
		c8.19,0,14.82,6.64,14.82,14.82v128.61C494.25,318.62,487.62,325.25,479.43,325.25z"/>
</g>
<g>
	<path class="st0" d="M311.43,325.25H182.82c-8.19,0-14.82-6.64-14.82-14.82V181.82c0-8.19,6.64-14.82,14.82-14.82h128.61
		c8.19,0,14.82,6.64,14.82,14.82v128.61C326.25,318.62,319.62,325.25,311.43,325.25z"/>
</g>
<g>
	<path class="st0" d="M143.43,325.25H14.82C6.64,325.25,0,318.62,0,310.43V181.82C0,173.64,6.64,167,14.82,167h128.61
		c8.19,0,14.82,6.64,14.82,14.82v128.61C158.25,318.62,151.62,325.25,143.43,325.25z"/>
</g>
<polygon class="st1" points="247.24,55.2 217.68,94.31 276.79,94.31 "/>
<polygon class="st1" points="247.01,270.42 276.57,231.32 217.46,231.32 "/>
<polygon class="st1" points="54.83,246.39 93.93,275.94 93.93,216.83 "/>
<polygon class="st1" points="439.42,246.61 400.32,217.06 400.32,276.17 "/>
</svg>
