<?xml version="1.0" encoding="utf-8"?>
<svg version="1.1" id="Layer_1" xmlns="http://www.w3.org/2000/svg" xmlns:xlink="http://www.w3.org/1999/xlink" x="0px" y="0px"
	 viewBox="0 0 158.25 158.25" style="enable-background:new 0 0 158.25 158.25;" xml:space="preserve">
<style type="text/css">
	.st0{fill:#3C3C3B;}
	.st1{fill:#FFFFFF;}
</style>
<g>
	<path class="st0" d="M143.43,158.25H14.82C6.64,158.25,0,151.62,0,143.43V14.82C0,6.64,6.64,0,14.82,0h128.61
		c8.19,0,14.82,6.64,14.82,14.82v128.61C158.25,151.62,151.62,158.25,143.43,158.25z"/>
</g>
<path class="st1" d="M57.66,45.87h19.18c12.47,0,21.43,4.48,21.43,17.24c0,12.23-8.96,18.12-21.43,18.12H65.46v25.89h-7.79V45.87z
	 M75.73,74.91c9.53,0,14.78-3.86,14.78-11.8c0-8.06-5.25-10.92-14.78-10.92H65.46v22.72H75.73z M75.31,79.1l6.11-4.03l18.69,32.06
	h-8.83L75.31,79.1z"/>
</svg>
